<svg width="191" height="53" viewBox="0 0 191 53" fill="none" xmlns="http://www.w3.org/2000/svg">
<g clip-path="url(#clip0)">
<path d="M188.527 1.5H1.5V51.5H188.527V1.5Z" stroke="#E8F0F2" stroke-width="3"/>
<g clip-path="url(#clip1)">
<path fill-rule="evenodd" clip-rule="evenodd" d="M26.4822 31.6119L36.2282 37.2373L30.1856 40.7173L26.4914 38.5923L22.8249 40.7179L16.7731 37.2373L26.4815 31.6119H26.4822ZM26.4822 21.7223L41 30.0947V34.3735L38.68 35.7378L26.4829 28.702L14.3233 35.7378L12.0033 34.392V30.0947L26.4822 21.7216V21.7223ZM26.4802 12L40.9974 20.3632V27.3338L26.4895 18.9804L12 27.3529V20.3724L26.4802 12Z" fill="#39A2DB"/>
</g>
<path d="M51.5 0V1" stroke="#E8F0F2" stroke-width="3"/>
<path d="M69.7 35.106C68.82 35.106 68.0267 34.886 67.32 34.446C66.6067 34.006 66.04 33.416 65.62 32.676C65.2067 31.9427 65 31.1193 65 30.206L65.02 22.716C65.02 21.836 65.2267 21.0327 65.64 20.306C66.0467 19.5793 66.6067 18.996 67.32 18.556C68.0267 18.116 68.82 17.896 69.7 17.896C70.58 17.896 71.3733 18.1127 72.08 18.546C72.7867 18.9793 73.3467 19.5593 73.76 20.286C74.1733 21.0127 74.38 21.8227 74.38 22.716V23.826C74.38 23.886 74.35 23.916 74.29 23.916H71.6C71.5333 23.916 71.5 23.886 71.5 23.826V22.716C71.5 22.1893 71.33 21.736 70.99 21.356C70.6433 20.9693 70.2133 20.776 69.7 20.776C69.1267 20.776 68.6867 20.9727 68.38 21.366C68.08 21.7593 67.93 22.2093 67.93 22.716V30.206C67.93 30.7993 68.1 31.2793 68.44 31.646C68.7867 32.0127 69.2067 32.196 69.7 32.196C70.2133 32.196 70.6433 31.9927 70.99 31.586C71.33 31.1793 71.5 30.7193 71.5 30.206V29.106C71.5 29.0393 71.5333 29.006 71.6 29.006H74.31C74.3767 29.006 74.41 29.0393 74.41 29.106V30.206C74.41 31.1193 74.1967 31.9427 73.77 32.676C73.35 33.416 72.7867 34.006 72.08 34.446C71.3733 34.886 70.58 35.106 69.7 35.106ZM78.97 34.866H76.26C76.1933 34.866 76.16 34.826 76.16 34.746L76.18 18.256C76.18 18.1893 76.22 18.156 76.3 18.156H78.97C79.05 18.156 79.09 18.1893 79.09 18.256L79.06 24.786H82.66V18.256C82.66 18.1893 82.6933 18.156 82.76 18.156H85.42C85.5 18.156 85.54 18.1893 85.54 18.256L85.59 34.746C85.59 34.826 85.55 34.866 85.47 34.866H82.78C82.7 34.866 82.66 34.826 82.66 34.746V27.686H79.06V34.746C79.06 34.826 79.03 34.866 78.97 34.866ZM95.41 34.866H87.66C87.5933 34.866 87.56 34.826 87.56 34.746L87.58 18.256C87.58 18.1893 87.6133 18.156 87.68 18.156H95.38C95.4467 18.156 95.48 18.196 95.48 18.276V20.966C95.48 21.0327 95.4467 21.066 95.38 21.066H90.46V24.806H95.38C95.4467 24.806 95.48 24.8393 95.48 24.906L95.5 27.616C95.5 27.6827 95.47 27.716 95.41 27.716H90.46V31.916H95.41C95.47 31.916 95.5 31.956 95.5 32.036V34.766C95.5 34.8327 95.47 34.866 95.41 34.866ZM101.67 35.106C100.79 35.106 99.9933 34.886 99.28 34.446C98.5733 34.006 98.01 33.416 97.59 32.676C97.1767 31.9427 96.97 31.1193 96.97 30.206L96.99 22.716C96.99 21.836 97.1933 21.0327 97.6 20.306C98.0133 19.5793 98.5733 18.996 99.28 18.556C99.9933 18.116 100.79 17.896 101.67 17.896C102.55 17.896 103.343 18.1127 104.05 18.546C104.75 18.9793 105.31 19.5593 105.73 20.286C106.143 21.0127 106.35 21.8227 106.35 22.716V23.826C106.35 23.886 106.32 23.916 106.26 23.916H103.57C103.503 23.916 103.47 23.886 103.47 23.826V22.716C103.47 22.1893 103.3 21.736 102.96 21.356C102.613 20.9693 102.183 20.776 101.67 20.776C101.097 20.776 100.657 20.9727 100.35 21.366C100.05 21.7593 99.9 22.2093 99.9 22.716V30.206C99.9 30.7993 100.07 31.2793 100.41 31.646C100.757 32.0127 101.177 32.196 101.67 32.196C102.183 32.196 102.613 31.9927 102.96 31.586C103.3 31.1793 103.47 30.7193 103.47 30.206V29.106C103.47 29.0393 103.503 29.006 103.57 29.006H106.28C106.347 29.006 106.38 29.0393 106.38 29.106V30.206C106.38 31.1193 106.167 31.9427 105.74 32.676C105.313 33.416 104.75 34.006 104.05 34.446C103.343 34.886 102.55 35.106 101.67 35.106ZM110.94 34.866H108.22C108.16 34.866 108.13 34.826 108.13 34.746L108.18 18.276C108.18 18.196 108.21 18.156 108.27 18.156H110.96C111.027 18.156 111.06 18.196 111.06 18.276V23.966L114.82 18.256C114.873 18.1893 114.93 18.156 114.99 18.156H117.75C117.817 18.156 117.833 18.1893 117.8 18.256L113.65 24.876L118.3 34.766C118.333 34.8327 118.293 34.866 118.18 34.866H115.26C115.18 34.866 115.13 34.8327 115.11 34.766L111.87 27.716L111.03 29.036V34.746C111.03 34.826 111 34.866 110.94 34.866ZM127.35 35.106C126.47 35.106 125.673 34.886 124.96 34.446C124.253 34.006 123.69 33.416 123.27 32.676C122.857 31.9427 122.65 31.1193 122.65 30.206L122.67 22.716C122.67 21.836 122.873 21.0327 123.28 20.306C123.693 19.5793 124.253 18.996 124.96 18.556C125.673 18.116 126.47 17.896 127.35 17.896C128.23 17.896 129.023 18.1127 129.73 18.546C130.43 18.9793 130.99 19.5593 131.41 20.286C131.823 21.0127 132.03 21.8227 132.03 22.716V23.826C132.03 23.886 132 23.916 131.94 23.916H129.25C129.183 23.916 129.15 23.886 129.15 23.826V22.716C129.15 22.1893 128.98 21.736 128.64 21.356C128.293 20.9693 127.863 20.776 127.35 20.776C126.777 20.776 126.337 20.9727 126.03 21.366C125.73 21.7593 125.58 22.2093 125.58 22.716V30.206C125.58 30.7993 125.75 31.2793 126.09 31.646C126.437 32.0127 126.857 32.196 127.35 32.196C127.863 32.196 128.293 31.9927 128.64 31.586C128.98 31.1793 129.15 30.7193 129.15 30.206V29.106C129.15 29.0393 129.183 29.006 129.25 29.006H131.96C132.027 29.006 132.06 29.0393 132.06 29.106V30.206C132.06 31.1193 131.847 31.9427 131.42 32.676C130.993 33.416 130.43 34.006 129.73 34.446C129.023 34.886 128.23 35.106 127.35 35.106ZM141.66 34.866H133.9C133.84 34.866 133.81 34.826 133.81 34.746L133.83 18.276C133.83 18.196 133.87 18.156 133.95 18.156H136.62C136.7 18.156 136.74 18.196 136.74 18.276L136.71 31.916H141.66C141.74 31.916 141.78 31.956 141.78 32.036V34.746C141.78 34.826 141.74 34.866 141.66 34.866ZM147.44 35.106C146.573 35.106 145.787 34.886 145.08 34.446C144.367 34.006 143.793 33.4227 143.36 32.696C142.927 31.9627 142.71 31.156 142.71 30.276L142.74 22.676C142.74 21.796 142.95 20.996 143.37 20.276C143.797 19.556 144.37 18.9793 145.09 18.546C145.81 18.1127 146.593 17.896 147.44 17.896C148.307 17.896 149.09 18.1127 149.79 18.546C150.497 18.9793 151.06 19.556 151.48 20.276C151.907 20.996 152.12 21.796 152.12 22.676L152.14 30.276C152.14 31.156 151.93 31.9627 151.51 32.696C151.083 33.4227 150.513 34.006 149.8 34.446C149.093 34.886 148.307 35.106 147.44 35.106ZM147.44 32.196C147.92 32.196 148.34 32.0027 148.7 31.616C149.06 31.2227 149.24 30.776 149.24 30.276L149.22 22.676C149.22 22.1427 149.05 21.6927 148.71 21.326C148.377 20.9593 147.953 20.776 147.44 20.776C146.947 20.776 146.523 20.956 146.17 21.316C145.817 21.676 145.64 22.1293 145.64 22.676V30.276C145.64 30.8093 145.817 31.2627 146.17 31.636C146.523 32.0093 146.947 32.196 147.44 32.196ZM158.38 35.106C157.5 35.106 156.707 34.886 156 34.446C155.287 34.006 154.72 33.416 154.3 32.676C153.887 31.9427 153.68 31.1193 153.68 30.206L153.7 22.716C153.7 21.836 153.907 21.0327 154.32 20.306C154.727 19.5793 155.287 18.996 156 18.556C156.707 18.116 157.5 17.896 158.38 17.896C159.26 17.896 160.053 18.1127 160.76 18.546C161.467 18.9793 162.027 19.5593 162.44 20.286C162.853 21.0127 163.06 21.8227 163.06 22.716V23.826C163.06 23.886 163.03 23.916 162.97 23.916H160.28C160.213 23.916 160.18 23.886 160.18 23.826V22.716C160.18 22.1893 160.01 21.736 159.67 21.356C159.323 20.9693 158.893 20.776 158.38 20.776C157.807 20.776 157.367 20.9727 157.06 21.366C156.76 21.7593 156.61 22.2093 156.61 22.716V30.206C156.61 30.7993 156.78 31.2793 157.12 31.646C157.467 32.0127 157.887 32.196 158.38 32.196C158.893 32.196 159.323 31.9927 159.67 31.586C160.01 31.1793 160.18 30.7193 160.18 30.206V29.106C160.18 29.0393 160.213 29.006 160.28 29.006H162.99C163.057 29.006 163.09 29.0393 163.09 29.106V30.206C163.09 31.1193 162.877 31.9427 162.45 32.676C162.03 33.416 161.467 34.006 160.76 34.446C160.053 34.886 159.26 35.106 158.38 35.106ZM167.65 34.866H164.94C164.873 34.866 164.84 34.826 164.84 34.746L164.89 18.276C164.89 18.196 164.92 18.156 164.98 18.156H167.67C167.737 18.156 167.77 18.196 167.77 18.276V23.966L171.54 18.256C171.587 18.1893 171.64 18.156 171.7 18.156H174.46C174.527 18.156 174.543 18.1893 174.51 18.256L170.36 24.876L175.02 34.766C175.047 34.8327 175.007 34.866 174.9 34.866H171.97C171.89 34.866 171.84 34.8327 171.82 34.766L168.58 27.716L167.74 29.036V34.746C167.74 34.826 167.71 34.866 167.65 34.866Z" fill="#39A2DB"/>
</g>
<defs>
<clipPath id="clip0">
<rect width="190.027" height="53" fill="white"/>
</clipPath>
<clipPath id="clip1">
<rect width="29" height="29" fill="white" transform="translate(12 12)"/>
</clipPath>
</defs>
</svg>
